<?xml version="1.0" encoding="UTF-8" standalone="no"?>
<!-- Created with Inkscape (http://www.inkscape.org/) -->

<svg
   version="1.1"
   id="svg1125"
   xml:space="preserve"
   width="365.39066"
   height="458.06769"
   viewBox="0 0 365.39065 458.06769"
   sodipodi:docname="05_map.svg"
   inkscape:version="1.1.2 (0a00cf5339, 2022-02-04)"
   xmlns:inkscape="http://www.inkscape.org/namespaces/inkscape"
   xmlns:sodipodi="http://sodipodi.sourceforge.net/DTD/sodipodi-0.dtd"
   xmlns="http://www.w3.org/2000/svg"
   xmlns:svg="http://www.w3.org/2000/svg"><defs
     id="defs1129"><clipPath
       clipPathUnits="userSpaceOnUse"
       id="clipPath1149"><path
         d="M 0,0 H 274 V 348 H 0 Z"
         id="path1147" /></clipPath><clipPath
       clipPathUnits="userSpaceOnUse"
       id="clipPath1173"><path
         d="M 0,0 H 274 V 348 H 0 Z"
         id="path1171" /></clipPath><clipPath
       clipPathUnits="userSpaceOnUse"
       id="clipPath1203"><path
         d="M 0,0 H 274 V 348 H 0 Z"
         id="path1201" /></clipPath><clipPath
       clipPathUnits="userSpaceOnUse"
       id="clipPath1227"><path
         d="M 0,0 H 274 V 348 H 0 Z"
         id="path1225" /></clipPath><clipPath
       clipPathUnits="userSpaceOnUse"
       id="clipPath1263"><path
         d="M 0,0 H 274 V 348 H 0 Z"
         id="path1261" /></clipPath><clipPath
       clipPathUnits="userSpaceOnUse"
       id="clipPath1283"><path
         d="M 0,0 H 274 V 348 H 0 Z"
         id="path1281" /></clipPath></defs><sodipodi:namedview
     id="namedview1127"
     pagecolor="#ffffff"
     bordercolor="#666666"
     borderopacity="1.0"
     inkscape:pageshadow="2"
     inkscape:pageopacity="0.0"
     inkscape:pagecheckerboard="0"
     showgrid="false"
     inkscape:zoom="4.3865811"
     inkscape:cx="128.23198"
     inkscape:cy="244.38167"
     inkscape:window-width="3840"
     inkscape:window-height="2136"
     inkscape:window-x="0"
     inkscape:window-y="0"
     inkscape:window-maximized="1"
     inkscape:current-layer="g1133"
     showguides="true"
     inkscape:guide-bbox="true"><sodipodi:guide
       position="4.3687448,457.56769"
       orientation="0,-1"
       id="guide20205" /></sodipodi:namedview><g
     id="g1131"
     inkscape:groupmode="layer"
     inkscape:label="05_map"
     transform="matrix(1.3333333,0,0,1.3333333,0.49999999,-5.9479071)"><g
       id="g1133"><path
         d="M 0,4.8359304 273.6705,4.8359277 273.293,347.547 82.950303,347.6094 0,347.63659 Z"
         style="fill:#66f2f2;fill-opacity:0.533333;fill-rule:nonzero;stroke:none"
         id="path1135"
         sodipodi:nodetypes="cccccc" /><g
         id="g1137"><path
           d="M -139.961,-15.98 H 298.152 V 379.102 H -139.961 Z"
           style="fill:none;stroke:#cccccc;stroke-width:0.749999;stroke-linecap:butt;stroke-linejoin:miter;stroke-miterlimit:4;stroke-dasharray:none;stroke-opacity:1"
           id="path1139" /></g><g
         id="g1141"><g
           id="g1143"><g
             id="g1145"
             clip-path="url(#clipPath1149)"><g
               id="g1151"><g
                 id="g1153"
                 transform="scale(1,-1)"><path
                   d="M 273.324,-347.414 273.6705,-4.8359277 2.203,-4.801 v -10.054 c 0,-2.383 -0.437,-5.657 -0.976,-7.27 -0.536,-1.617 -0.977,-3.383 -0.977,-3.922 0,-0.543 0.879,-0.984 1.953,-0.984 1.074,0 2.391,-1.328 2.93,-2.949 0.535,-1.622 0.535,-3.387 0,-3.926 -0.539,-0.543 -0.102,-1.864 0.969,-2.942 1.07,-1.078 1.707,-3.89 1.418,-6.254 l -0.883,-7.132 c -0.289,-2.364 -0.09,-4.297 0.441,-4.297 0.535,0 0.973,0.445 0.973,0.996 0,0.547 0.437,0.996 0.976,0.996 0.535,0 0.977,-0.449 0.977,-0.996 0,-0.551 0.437,-0.996 0.976,-0.996 0.536,0 1.856,-0.875 2.93,-1.946 1.074,-1.074 2.391,-2.835 2.926,-3.918 0.531,-1.085 0.969,-2.414 0.969,-2.957 0,-0.539 -0.438,-0.097 -0.969,0.985 -0.535,1.078 -0.594,0.051 -0.133,-2.285 l 0.262,-1.325 c 0.465,-2.335 0.84,-6.199 0.84,-8.582 v -8.988 c 0,-2.379 -0.438,-5.656 -0.969,-7.277 -0.535,-1.621 -0.973,-4.278 -0.973,-5.903 0,-1.621 -0.871,-4.695 -1.933,-6.824 l -0.043,-0.086 c -1.063,-2.129 -2.172,-5.808 -2.465,-8.172 l -0.883,-7.113 c -0.297,-2.363 -0.977,-6.066 -1.512,-8.223 -0.539,-2.16 -1.589,-5.777 -2.336,-8.039 l -1.179,-3.558 c -0.746,-2.262 -1.571,-6.051 -1.832,-8.418 l -1,-9.043 c -0.262,-2.371 -0.477,-5.629 -0.477,-7.246 0,-1.617 0.442,-2.942 0.977,-2.942 0.535,0 0.972,1.77 0.972,3.926 0,2.156 0.442,5.692 0.981,7.852 0.535,2.164 1.293,5.855 1.679,8.203 l 0.532,3.226 c 0.386,2.352 1.144,3.387 1.683,2.301 0.535,-1.086 0.11,-3.719 -0.953,-5.851 l -0.035,-0.071 c -1.062,-2.133 -1.93,-4.324 -1.93,-4.871 0,-0.543 0.438,-0.988 0.969,-0.988 0.535,0 1.852,0.445 2.926,0.988 1.07,0.547 2.391,0.992 2.93,0.992 0.539,0 2.296,0.442 3.902,0.981 1.609,0.535 3.363,0.976 3.898,0.976 0.539,0 -0.812,-0.769 -3,-1.711 l -5.707,-2.457 c -2.187,-0.941 -3.976,-2.156 -3.976,-2.699 0,-0.543 0.437,-0.984 0.976,-0.984 0.535,0 0.102,-0.887 -0.972,-1.965 -1.071,-1.082 -1.508,-2.41 -0.977,-2.953 0.535,-0.543 0.535,-0.984 0,-0.984 -0.531,0 -0.969,-1.329 -0.969,-2.946 0,-1.617 -0.879,-3.828 -1.953,-4.906 -1.074,-1.082 -1.511,-2.844 -0.976,-3.922 0.535,-1.074 0.593,-3.867 0.132,-6.203 l -0.265,-1.32 c -0.461,-2.34 -0.402,-4.692 0.133,-5.227 0.535,-0.539 1.414,-0.976 1.953,-0.976 0.535,0 0.976,0.437 0.976,0.976 0,0.535 1.371,2.359 3.051,4.051 l 3.649,3.672 c 1.679,1.687 3.054,3.953 3.054,5.027 v 0.981 c 0,-0.539 1.754,-0.977 3.899,-0.977 2.148,0 3.465,0.887 2.926,1.969 -0.536,1.086 0.398,0.59 2.074,-1.106 l 1.691,-1.707 c 1.68,-1.691 2.617,-3.074 2.082,-3.074 -0.535,0 -2.711,0.875 -4.84,1.941 l -0.066,0.036 c -2.129,1.066 -4.309,1.941 -4.848,1.941 -0.535,0 -1.851,-0.883 -2.922,-1.961 -1.07,-1.074 -1.945,-3.281 -1.945,-4.902 0,-1.617 -0.441,-2.508 -0.98,-1.973 -0.539,0.539 -1.418,0.094 -1.954,-0.984 -0.539,-1.075 -1.531,-3.825 -2.21,-6.11 l -3.379,-11.336 c -0.68,-2.285 -0.36,-4.152 0.711,-4.152 1.07,0 2.386,0.449 2.925,1 0.535,0.547 1.414,0.996 1.953,0.996 0.536,0 0.536,-0.449 0,-0.996 -0.539,-0.551 -1.418,-1 -1.953,-1 -0.539,0 -0.976,-0.437 -0.976,-0.973 0,-0.539 -0.438,-0.976 -0.973,-0.976 -0.531,0 -0.969,-0.883 -0.969,-1.965 0,-1.082 0.868,-3.711 1.926,-5.844 l 0.043,-0.09 c 1.059,-2.132 1.926,-5.644 1.926,-7.8 0,-2.157 0.437,-3.481 0.976,-2.946 0.536,0.539 0.536,0.094 0,-0.984 -0.539,-1.082 -0.976,-3.289 -0.976,-4.906 0,-1.618 0.879,-3.383 1.957,-3.922 1.074,-0.543 2.391,-0.988 2.926,-0.988 0.539,0 1.851,0.445 2.922,0.988 1.074,0.539 1.511,1.867 0.972,2.945 -0.535,1.078 -0.535,1.524 0,0.988 0.539,-0.531 1.418,-0.531 1.953,0 0.539,0.536 1.856,0.973 2.93,0.973 1.07,0 3.758,0.73 5.965,1.617 l 1.726,0.696 c 2.211,0.89 2.7,1.617 1.083,1.617 -1.614,0 -2.489,0.879 -1.95,1.953 0.543,1.074 0.543,2.84 0,3.922 -0.539,1.082 -0.539,1.523 0,0.98 0.543,-0.539 1.864,-1.426 2.938,-1.969 1.07,-0.539 2.383,-1.418 2.914,-1.957 0.531,-0.535 1.406,-0.972 1.949,-0.972 0.539,0 2.297,0.879 3.899,1.957 1.605,1.078 2.484,2.402 1.953,2.941 -0.532,0.543 -1.411,0.988 -1.953,0.988 -0.543,0 -0.543,0.442 0,0.985 0.542,0.543 1.421,0.543 1.953,0 0.531,-0.543 2.632,0.023 4.671,1.258 l 2.356,1.425 c 2.039,1.231 3.266,2.676 2.727,3.207 -0.54,0.536 -0.102,0.973 0.968,0.973 1.071,0 1.949,0.883 1.949,1.965 0,1.082 -0.531,3.844 -1.179,6.133 l -1.535,5.414 c -0.653,2.293 -1.184,5.047 -1.184,6.125 0,1.074 0.441,2.398 0.981,2.941 0.539,0.543 1.414,-0.336 1.949,-1.957 0.531,-1.617 1.41,-2.941 1.945,-2.941 0.539,0 0.539,-0.442 0,-0.977 -0.535,-0.539 -0.977,-2.308 -0.977,-3.933 0,-1.625 0.442,-3.391 0.977,-3.922 0.539,-0.535 2.297,-0.973 3.906,-0.973 1.61,0 3.364,0.438 3.903,0.973 0.535,0.531 0.976,1.41 0.976,1.949 0,0.539 0.438,0.539 0.977,0 0.535,-0.539 1.414,-0.98 1.953,-0.98 0.535,0 1.41,1.328 1.945,2.953 0.535,1.625 1.852,3.832 2.922,4.902 1.074,1.07 2.832,2.391 3.902,2.934 1.071,0.543 2.387,1.429 2.922,1.972 0.535,0.543 0.973,-0.336 0.973,-1.957 0,-1.617 -0.438,-2.504 -0.973,-1.972 -0.535,0.535 -1.851,0.093 -2.922,-0.977 -1.07,-1.07 -1.511,-2.391 -0.972,-2.934 0.535,-0.539 2.554,-2.121 4.488,-3.511 l 6.625,-4.766 c 1.934,-1.391 4.891,-3.91 6.566,-5.602 l 5.598,-5.632 c 1.68,-1.692 2.973,-1.129 2.875,1.254 l -0.211,5.07 c -0.097,2.383 0.391,4.777 1.078,5.328 0.692,0.547 1.258,2.32 1.258,3.938 0,1.617 -0.437,3.382 -0.973,3.921 -0.535,0.543 -0.972,2.75 -0.972,4.907 0,2.156 0.437,4.359 0.972,4.898 0.536,0.535 0.973,1.418 0.973,1.961 0,0.543 0.442,1.422 0.977,1.957 0.535,0.539 1.414,0.539 1.949,0 0.539,-0.535 0.539,-1.855 0,-2.934 -0.535,-1.078 -1.414,-1.96 -1.949,-1.96 -0.535,0 -0.535,-0.446 0,-0.989 0.535,-0.543 0.535,-2.304 0,-3.922 -0.535,-1.613 -0.098,-3.375 0.976,-3.918 1.074,-0.539 2.391,-1.871 2.93,-2.953 0.535,-1.082 1.414,-1.527 1.945,-0.988 0.535,0.539 0.535,0.539 0,0 -0.531,-0.539 -0.531,-1.418 0,-1.949 0.535,-0.535 1.41,-0.535 1.949,0 0.536,0.531 0.536,0.082 0,-1 -0.539,-1.082 -1.414,-1.969 -1.949,-1.969 -0.531,0 -1.41,0.887 -1.945,1.969 -0.539,1.082 -1.418,2.41 -1.957,2.949 -0.535,0.539 -0.535,-0.348 0,-1.969 0.539,-1.621 0.109,-4.273 -0.957,-5.886 -1.063,-1.622 -1.871,-3.379 -1.793,-3.915 0.078,-0.531 0.508,-0.968 0.957,-0.968 0.449,0 1.258,-0.883 1.793,-1.969 0.539,-1.082 1.855,-1.969 2.926,-1.969 1.07,0 2.828,-0.441 3.906,-0.984 1.078,-0.543 1.961,-0.102 1.961,0.976 0,1.079 1.16,0.399 2.582,-1.515 l 0.672,-0.906 c 1.422,-1.915 3.023,-3.915 3.562,-4.454 0.535,-0.535 1.41,-0.972 1.946,-0.972 0.531,0 0.964,0.437 0.964,0.972 0,0.539 0.446,0.539 0.985,0 0.539,-0.535 0.101,-1.859 -0.969,-2.937 -1.07,-1.082 -1.516,-2.406 -0.98,-2.945 0.531,-0.536 2.285,-0.977 3.894,-0.977 1.609,0 4.246,-0.883 5.856,-1.961 1.605,-1.078 4.73,-2.691 6.941,-3.586 l 1.723,-0.691 c 2.207,-0.895 4.453,-1.18 4.988,-0.641 0.535,0.543 1.414,2.313 1.949,3.934 0.539,1.621 1.418,3.386 1.957,3.922 0.535,0.539 0.977,1.421 0.977,1.964 0,0.543 -0.442,1.868 -0.977,2.942 -0.539,1.074 -0.976,2.394 -0.976,2.933 0,0.543 0.437,0.106 0.976,-0.972 0.535,-1.078 2.719,-1.082 4.848,-0.016 l 0.066,0.031 c 2.129,1.071 5.184,1.946 6.789,1.946 1.606,0 3.797,-0.446 4.871,-0.989 1.075,-0.539 3.274,-1.859 4.879,-2.933 1.61,-1.074 3.364,-1.953 3.899,-1.953 0.535,0 1.41,0.441 1.949,0.976 0.535,0.539 0.977,0.539 0.977,0 0,-0.535 0.437,-0.976 0.972,-0.976 0.535,0 1.852,0.441 2.926,0.976 1.074,0.539 3.269,2.305 4.883,3.922 1.609,1.621 3.801,2.5 4.871,1.957 1.066,-0.539 0.629,-1.863 -0.977,-2.941 -1.601,-1.078 -4.656,-2.832 -6.785,-3.906 l -0.074,-0.036 c -2.129,-1.074 -5.625,-1.949 -7.77,-1.949 -2.144,0 -4.777,0.445 -5.847,0.988 -1.071,0.543 -1.949,1.43 -1.949,1.965 0,0.539 -0.879,0.981 -1.954,0.981 -1.074,0 -2.832,-0.887 -3.902,-1.965 -1.07,-1.082 -3.266,-1.969 -4.871,-1.969 -1.609,0 -3.805,-0.875 -4.875,-1.945 -1.074,-1.07 -2.391,-3.715 -2.926,-5.871 -0.539,-2.16 -1.855,-4.375 -2.929,-4.926 -1.071,-0.551 -3.704,-0.996 -5.848,-0.996 -2.149,0 -5.223,1.324 -6.836,2.945 -1.613,1.621 -4.246,2.504 -5.852,1.961 -1.601,-0.539 -4.468,0.195 -6.363,1.637 l -0.894,0.68 c -1.895,1.441 -3.891,2.621 -4.43,2.621 -0.543,0 -1.422,-0.887 -1.953,-1.977 -0.532,-1.086 -0.532,-1.086 0,0 0.531,1.09 0.531,1.977 0,1.977 -0.532,0 -0.532,0 0,0 0.531,0 1.41,0.437 1.953,0.968 0.539,0.536 -0.336,1.86 -1.949,2.938 -1.614,1.082 -4.692,1.965 -6.836,1.965 -2.149,0 -5.813,0.383 -8.149,0.851 l -1.269,0.254 c -2.336,0.469 -5.989,-0.027 -8.114,-1.101 l -0.054,-0.028 c -2.129,-1.074 -3.871,-2.828 -3.871,-3.898 0,-1.07 0.441,-1.949 0.98,-1.949 0.535,0 0.535,0 0,0 -0.539,0 -0.539,-1.332 0,-2.961 0.535,-1.629 0.977,-3.395 0.977,-3.922 0,-0.531 0.875,-0.965 1.949,-0.965 1.07,0 2.383,0.434 2.918,0.965 0.531,0.527 1.41,0.527 1.949,0 0.539,-0.531 0.106,-1.856 -0.969,-2.942 -1.074,-1.086 -2.39,-1.976 -2.929,-1.976 -0.539,0 -0.981,0.437 -0.981,0.976 0,0.539 -0.433,0.102 -0.969,-0.968 -0.531,-1.071 -0.968,-1.512 -0.968,-0.977 0,0.531 0.437,1.406 0.968,1.945 0.536,0.539 0.094,1.426 -0.976,1.977 -1.07,0.551 -2.387,2.766 -2.926,4.926 -0.535,2.156 -1.414,5.246 -1.945,6.859 -0.535,1.613 -0.098,3.813 0.976,4.887 1.071,1.074 0.575,3.336 -1.101,5.027 l -3.656,3.696 c -1.676,1.691 -3.489,2.628 -4.024,2.082 -0.535,-0.543 -1.41,-0.11 -1.945,0.968 -0.539,1.082 -2.289,1.965 -3.899,1.965 -1.609,0 -3.363,-1.324 -3.898,-2.937 -0.539,-1.618 -1.418,-2.942 -1.953,-2.942 -0.539,0 -1.856,-0.441 -2.93,-0.984 -1.07,-0.543 -1.949,-1.871 -1.949,-2.953 0,-1.082 -1.317,-3.293 -2.93,-4.91 -1.609,-1.618 -4.094,-4.504 -5.515,-6.415 l -0.668,-0.898 c -1.422,-1.91 -3.461,-3.031 -4.536,-2.488 -1.074,0.539 -3.511,-0.188 -5.414,-1.621 l -0.875,-0.657 c -1.906,-1.433 -3.027,-3.496 -2.496,-4.582 0.532,-1.086 0.965,-3.925 0.965,-6.308 v -1.164 c 0,-2.383 0.442,-5.656 0.985,-7.274 0.542,-1.617 1.421,-2.941 1.953,-2.941 0.531,0 0.964,-0.438 0.964,-0.969 0,-0.535 -0.433,-1.414 -0.964,-1.957 -0.532,-0.539 -0.969,-1.863 -0.969,-2.941 0,-1.082 -0.442,-1.528 -0.984,-0.989 -0.543,0.539 -1.864,0.098 -2.934,-0.976 -1.074,-1.074 -1.074,-2.399 0,-2.942 1.07,-0.546 2.391,-2.312 2.934,-3.925 0.542,-1.618 -0.18,-1.375 -1.61,0.531 l -0.68,0.91 c -1.425,1.91 -3.468,3.027 -4.539,2.484 -1.07,-0.546 -1.949,-0.546 -1.949,0 0,0.543 0.879,1.426 1.949,1.965 1.071,0.535 2.821,1.86 3.895,2.942 1.07,1.078 1.949,2.84 1.949,3.914 0,1.074 -0.879,2.398 -1.949,2.937 -1.074,0.543 -2.383,0.543 -2.914,0 -0.531,-0.539 -0.531,-0.539 0,0 0.531,0.543 -0.789,0.989 -2.934,0.989 -2.144,0 -5.652,0.445 -7.797,0.988 -2.14,0.547 -4.773,1.871 -5.847,2.945 -1.078,1.078 -1.957,2.844 -1.957,3.926 0,1.078 -0.438,1.965 -0.969,1.965 -0.535,0 -0.535,0.441 0,0.984 0.531,0.547 0.094,1.867 -0.977,2.938 -1.07,1.07 -2.824,1.507 -3.898,0.968 -1.078,-0.539 -2.832,-2.296 -3.906,-3.91 -1.071,-1.609 -2.813,-4.676 -3.871,-6.808 l -0.055,-0.118 c -1.059,-2.132 -2.363,-5.644 -2.902,-7.804 -0.536,-2.16 -0.977,-5.692 -0.977,-7.852 0,-2.16 0.613,-5.777 1.363,-8.039 l 3.129,-9.433 c 0.75,-2.262 1.805,-4.551 2.336,-5.086 0.535,-0.536 0.973,-1.422 0.973,-1.965 0,-0.547 0.437,-0.992 0.976,-0.992 0.535,0 1.856,-0.879 2.934,-1.954 1.074,-1.074 1.953,-2.402 1.953,-2.949 0,-0.551 0.875,-1 1.945,-1 1.071,0 2.387,-1.32 2.922,-2.929 0.539,-1.614 0.977,-3.817 0.977,-4.899 0,-1.078 0.879,-3.293 1.953,-4.918 1.074,-1.625 2.832,-3.39 3.902,-3.926 1.075,-0.531 3.266,-0.082 4.875,0.996 1.61,1.082 2.489,1.961 1.953,1.961 -0.531,0 -0.531,0.442 0,0.981 0.536,0.539 2.289,0.976 3.903,0.976 1.609,0 4.242,-0.886 5.844,-1.972 1.605,-1.082 2.484,-1.524 1.953,-0.977 -0.532,0.547 -0.532,0.992 0,0.992 0.531,0 0.531,0.442 0,0.981 -0.532,0.539 -1.411,1.859 -1.953,2.941 -0.543,1.082 -0.985,2.41 -0.985,2.949 0,0.54 0.442,1.422 0.985,1.961 0.542,0.539 0.542,0.098 0,-0.98 -0.543,-1.078 -0.543,-2.402 0,-2.941 0.542,-0.543 2.195,-2.508 3.675,-4.375 l 2.418,-3.047 c 1.481,-1.868 3.129,-3.395 3.664,-3.395 0.535,0 1.848,-0.879 2.918,-1.957 1.071,-1.078 2.391,-1.957 2.926,-1.957 0.539,0 2.195,-1.527 3.676,-3.391 l 2.414,-3.042 c 1.48,-1.868 3.133,-3.391 3.672,-3.391 0.535,0 1.414,-0.442 1.953,-0.985 0.535,-0.539 1.851,-1.421 2.922,-1.96 1.07,-0.543 1.945,-0.102 1.945,0.976 0,1.082 0.441,1.969 0.977,1.969 0.539,0 1.855,-0.442 2.925,-0.985 1.071,-0.539 1.946,-0.539 1.946,0 0,0.543 0.883,0.098 1.957,-0.984 1.074,-1.078 3.144,-3.504 4.601,-5.39 l 3.59,-4.645"
                   style="fill:#d8d8d8;fill-opacity:1;fill-rule:nonzero;stroke:#231f20;stroke-width:0.5;stroke-linecap:butt;stroke-linejoin:miter;stroke-miterlimit:10;stroke-dasharray:none;stroke-opacity:1"
                   id="path1155"
                   sodipodi:nodetypes="cccscsscccccsssssccscccsscscccccccccsssccccccsscscsccssccsscccccssccscscccsccscsccccscscssssccsccscsccccsccscccccsccscccccssccsccscssssscssccssccscccccccscscscccsscccccsccscccccscsssccssscccsccccccscscccsccscssccccccscsscscccsscccsccssccsccccssscsssccsscscscccccccscscscccccccsscsscscccccccscsscccscssscscccccscccsscsscssccscsccsccscccccscsccsscsscsccc" /></g><path
                 d="m 17.828,248.922 5.86,5.914 3.898,1.93 h 11.707 v -11.758 h -3.898 v 1.937 h -1.961 v -3.894 h -3.907 v 1.957 -1.957 l 1.969,-1.996 v -1.93 h -3.91 l -3.898,3.926 1.945,-1.996 h -5.852 l -1.953,5.89 z"
                 style="fill:#d8d8d8;fill-opacity:1;fill-rule:nonzero;stroke:none"
                 id="path1157" /><g
                 id="g1159"
                 transform="scale(1,-1)"><path
                   d="m 185.297,-347.496 1.941,6.305 7.805,3.929 h 3.906 v 5.899 h -1.965 l -5.836,1.968 -1.953,1.965 v 1.953 l 3.903,1.977 -1.95,-1.977 v -1.953 l 1.95,-1.965 h 5.851 l 1.949,-3.937 h 9.766 l 5.828,1.969 7.817,-1.969 h 1.953 l 1.945,1.969 h 1.957 l 1.941,1.968 3.911,9.817 5.851,3.926 17.551,5.886 3.91,-1.961 5.836,-1.972 -1.937,-1.953 h -7.809 v -1.989 l -1.957,1.989 -15.594,-1.989 -1.957,-1.937 v -3.922 l -7.805,-11.801 h -1.941 l -1.957,-1.961 h -1.945 l -9.77,-1.968 -16.398,-8.25"
                   style="font-variation-settings:normal;opacity:1;vector-effect:none;fill:#66f2f2;fill-opacity:0.533333;fill-rule:nonzero;stroke:#000000;stroke-width:0.301969;stroke-linecap:butt;stroke-linejoin:miter;stroke-miterlimit:4;stroke-dasharray:none;stroke-dashoffset:0;stroke-opacity:1;-inkscape-stroke:none;stop-color:#000000;stop-opacity:1"
                   id="path1161" /></g><g
                 id="g1163"
                 transform="scale(1,-1)"><path
                   d="m 160.293,-347.492 1.605,2.39 3.891,1.973 v 1.938 l -3.891,3.929 v 1.961 h 1.938 v -1.961 l 5.852,-5.867 h 1.953 -3.911 l -4,-4.344"
                   style="font-variation-settings:normal;opacity:1;vector-effect:none;fill:#66f2f2;fill-opacity:0.533333;fill-rule:nonzero;stroke:#000000;stroke-width:0.301969;stroke-linecap:butt;stroke-linejoin:miter;stroke-miterlimit:4;stroke-dasharray:none;stroke-dashoffset:0;stroke-opacity:1;-inkscape-stroke:none;stop-color:#000000;stop-opacity:1"
                   id="path1165" /></g></g></g></g></g><g
         id="g1167"><g
           id="g1169" /><g
           id="g1195"
           style="fill:#aade87"><g
             clip-path="url(#clipPath1173)"
             id="g1193"
             style="fill:#aade87"><g
               id="g1191"
               style="fill:#aade87"><path
                 d="m 58.77,325.379 h -1.958 l -3.894,-3.918 h -1.945 l -7.801,-9.828 -1.969,-1.965 1.969,-3.922 -1.969,1.961 v 1.961 l 1.969,3.934 1.933,1.957 h -1.933 l 1.933,1.988 -5.832,-3.945 h -5.859 l -1.941,1.957 h 1.941 l -5.852,3.921 -3.898,-1.933 -3.906,-5.914 v -3.926 l -1.953,-5.863 h -3.891 v -2 l -3.91,-3.903 H 8.051 v -1.984 L 6.109,292.012 0.25,274.355 V 266.5 l 1.957,-7.848 3.902,-7.879 3.895,-5.863 3.91,-1.957 3.891,3.899 -1.942,1.972 h 1.942 v 3.934 l 3.906,3.91 7.793,1.984 h 7.801 l -1.93,1.969 1.93,-1.969 3.898,1.969 v 3.906 l -3.898,3.926 -3.891,1.953 v 1.981 l 3.891,-1.981 5.867,7.852 -1.969,-5.871 -3.898,-1.981 3.898,-3.906 1.969,1.953 v -3.926 l 1.933,-1.965 v -1.941 h -1.933 l -1.969,-5.883 v -9.828 l -1.93,-3.953 7.793,-5.867 3.907,1.972 5.839,-7.847 5.86,-5.883 v -3.937 l 3.902,-1.969 h 1.949 l 1.954,-5.879 h 5.847 l 1.949,3.926 1.946,-1.985 9.754,9.844 -3.895,3.906 1.942,5.871 1.953,7.848 3.898,1.996 -1.941,1.957 v 1.942 l 1.941,-3.899 v 1.957 h 1.953 l 3.903,-3.953 -1.961,-1.926 -1.942,1.926 H 91.93 v -1.926 l -1.957,-5.922 h 1.957 -1.957 v -3.894 l 7.793,-3.934 9.761,1.957 h 7.805 l 5.867,3.93 -1.972,1.941 h -1.934 1.934 l -1.934,3.953 1.934,-3.953 h 1.972 l 7.785,5.922 5.84,-1.969 5.864,5.891 h 7.8 l 3.903,-1.996 1.953,-7.848 3.898,-3.894 h 5.848 l 3.894,-3.934 h 3.911 v 1.957 l 3.898,1.977 h 7.797 l 7.816,-3.934 5.836,-3.918 -3.89,-1.968 -5.856,5.886 -3.906,1.957 h -1.945 v -1.957 l -1.957,1.957 h -1.938 l -5.855,-3.906 -3.911,-1.969 h -5.832 l -7.808,3.918 -1.953,-3.918 v 1.969 l 1.953,3.906 v 1.977 l -1.953,1.953 -1.957,5.894 -1.946,1.969 -9.758,-3.941 -5.847,-3.922 h -5.86 l -1.933,-1.953 3.894,-3.934 -1.961,-1.949 v 1.949 h -1.933 l -1.957,-1.949 -5.84,-7.859 v 3.922 l -3.918,-1.969 h -3.895 l -1.953,-3.938 h -1.632 l -0.282,-1.941 3.867,-5.879 -1.953,-5.898 1.953,1.96 1.958,3.938 h 1.937 l 1.957,-3.938 -1.957,1.942 -1.937,-1.942 1.937,-1.96 -1.937,1.96 -1.958,-3.937 -3.898,-1.973 1.945,-5.867 -1.945,-1.973 h 1.945 l 1.953,-3.921 -1.953,-1.95 -1.945,1.95 v 1.968 l -1.953,1.953 v 7.84 l 1.953,1.973 v 5.879 l -2.52,1.996 0.567,13.727 -11.699,-11.782 -13.657,-9.82 -1.949,-1.973 3.895,-3.894 1.949,1.941 v -5.887 l -1.949,1.973 -3.895,1.973 -3.906,3.894 -1.941,5.91 h -1.954 l -1.949,-1.96 v 1.96 l -1.953,1.942 H 58.77 l -1.958,-1.942 v -5.91 l 1.958,-1.953 h -1.958 l -1.937,-5.887 -1.957,1.973 v 3.914 l 3.894,13.746 v 3.934 h -3.894 l 1.957,1.941 -9.77,5.907 -1.933,-1.969 -1.969,1.969 h 1.969 l 1.933,1.968 -5.832,3.918 h -1.968 l -1.93,-1.949 -3.902,-1.969 -1.969,-1.968 1.969,3.937 -1.969,3.906 h 5.871 l -9.762,3.93 h -3.902 l -1.953,1.941 -1.953,-1.941 1.953,3.922 -3.895,1.972 h -1.949 l -3.91,-1.972 v -5.875 l 1.953,-3.934 -1.953,1.957 v -7.843 l -3.895,-7.848 v -3.934 h 1.942 v -1.945 h 1.953 l 1.953,-1.996 h -1.953 l -1.953,1.996 H 4.156 l 5.848,-19.641 1.953,-3.918 1.957,1.95 v -5.891 l 3.891,-3.918 h 1.953 l 7.804,3.918 h 1.942 l -7.793,-7.859 1.953,3.941 h -7.801 v -1.953 3.91 l -9.754,9.82 v 1.953 H 4.156 l -1.949,-1.953 1.949,-9.82 -1.949,-3.91 3.902,-3.93 v -5.883 h 1.942 l -1.942,-1.972 3.895,-3.934 H 8.051 v -1.973 l 13.66,-5.878 h -1.953 l -5.844,1.957 h -1.957 l -3.906,1.98 H 6.109 v -1.98 l 3.895,-7.829 -1.953,-3.945 -1.942,11.774 -1.953,7.859 v 7.848 H 2.207 v -5.879 l 1.949,-17.657 3.895,-11.785 1.953,-7.847 1.953,-15.711 3.906,-7.836 v -5.903 l 1.942,-5.898 V 70.227 l -1.942,-9.825 1.942,3.93 V 62.367 L 16.801,60.5 19.496,58.523 v -3.894 l 1.957,-3.93 -1.957,-5.918 3.906,-1.945 1.95,-3.934 3.894,-1.964 v -7.86 h 1.965 V 25.16 h 3.902 v -1.957 l 3.93,-8.375 c 0,0 23,-4.664 23.5,-4.664 0.5,0 10.832,1.332 11.832,1.832 1,0.5 11.836,0.5 11.836,0.5 l 9.832,-0.668 6.668,-0.664 12.332,-1 18.5,-1.836 15.832,2.668 11,2.168 17.168,2.5 c 0,0 13.562,2.742 19.699,5.832 6.133,3.09 16.301,13.543 19.801,20.356 3.5,6.812 12.668,11.476 16.5,22.312 3.832,10.832 4.582,34.914 2.332,57.414 -2.25,22.5 -0.941,25.82 -5.25,70 -1,10.25 -9.891,12.25 -15.391,18.75 -13.5,15.957 -13.285,19.149 -26.422,31.75 -12.503,12 -19.687,6 -41.187,18.25 -21.5,12.25 -14.25,22.75 -13.25,29 1,6.25 1.25,22.914 8.75,29.832 7.5,6.918 24.75,14.668 3.5,17.918 -21.25,3.25 -41,6 -60,1.5 -19,-4.5 -27.855,-13.199 -27.855,-13.199"
                 style="fill:#aade87;fill-opacity:0.533333;fill-rule:nonzero;stroke:none"
                 id="path1175" /><path
                 d="m 58.77,325.379 h -1.958 l -3.894,-3.918 h -1.945 l -7.801,-9.828 -1.969,-1.965 1.969,-3.922 -1.969,1.961 v 1.961 l 1.969,3.934 1.933,1.957 h -1.933 l 1.933,1.988 -5.832,-3.945 h -5.859 l -1.941,1.957 h 1.941 l -5.852,3.921 -3.898,-1.933 -3.906,-5.914 v -3.926 l -1.953,-5.863 h -3.891 v -2 l -3.91,-3.903 H 8.051 v -1.984 L 6.109,292.012 0.25,274.355 V 266.5 l 1.957,-7.848 3.902,-7.879 3.895,-5.863 3.91,-1.957 3.891,3.899 -1.942,1.972 h 1.942 v 3.934 l 3.906,3.91 7.793,1.984 h 7.801 l -1.93,1.969 1.93,-1.969 3.898,1.969 v 3.906 l -3.898,3.926 -3.891,1.953 v 1.981 l 3.891,-1.981 5.867,7.852 -1.969,-5.871 -3.898,-1.981 3.898,-3.906 1.969,1.953 v -3.926 l 1.933,-1.965 v -1.941 h -1.933 l -1.969,-5.883 v -9.828 l -1.93,-3.953 7.793,-5.867 3.907,1.972 5.839,-7.847 5.86,-5.883 v -3.937 l 3.902,-1.969 h 1.949 l 1.954,-5.879 h 5.847 l 1.949,3.926 1.946,-1.985 9.754,9.844 -3.895,3.906 1.942,5.871 1.953,7.848 3.898,1.996 -1.941,1.957 v 1.942 l 1.941,-3.899 v 1.957 h 1.953 l 3.903,-3.953 -1.961,-1.926 -1.942,1.926 H 91.93 v -1.926 l -1.957,-5.922 h 1.957 -1.957 v -3.894 l 7.793,-3.934 9.761,1.957 h 7.805 l 5.867,3.93 -1.972,1.941 h -1.934 1.934 l -1.934,3.953 1.934,-3.953 h 1.972 l 7.785,5.922 5.84,-1.969 5.864,5.891 h 7.8 l 3.903,-1.996 1.953,-7.848 3.898,-3.894 h 5.848 l 3.894,-3.934 h 3.911 v 1.957 l 3.898,1.977 h 7.797 l 7.816,-3.934 5.836,-3.918 -3.89,-1.968 -5.856,5.886 -3.906,1.957 h -1.945 v -1.957 l -1.957,1.957 h -1.938 l -5.855,-3.906 -3.911,-1.969 h -5.832 l -7.808,3.918 -1.953,-3.918 v 1.969 l 1.953,3.906 v 1.977 l -1.953,1.953 -1.957,5.894 -1.946,1.969 -9.758,-3.941 -5.847,-3.922 h -5.86 l -1.933,-1.953 3.894,-3.934 -1.961,-1.949 v 1.949 h -1.933 l -1.957,-1.949 -5.84,-7.859 v 3.922 l -3.918,-1.969 h -3.895 l -1.953,-3.938 h -1.632 l -0.282,-1.941 3.867,-5.879 -1.953,-5.898 1.953,1.96 1.958,3.938 h 1.937 l 1.957,-3.938 -1.957,1.942 -1.937,-1.942 1.937,-1.96 -1.937,1.96 -1.958,-3.937 -3.898,-1.973 1.945,-5.867 -1.945,-1.973 h 1.945 l 1.953,-3.921 -1.953,-1.95 -1.945,1.95 v 1.968 l -1.953,1.953 v 7.84 l 1.953,1.973 v 5.879 l -2.52,1.996 0.567,13.727 -11.699,-11.782 -13.657,-9.82 -1.949,-1.973 3.895,-3.894 1.949,1.941 v -5.887 l -1.949,1.973 -3.895,1.973 -3.906,3.894 -1.941,5.91 h -1.954 l -1.949,-1.96 v 1.96 l -1.953,1.942 H 58.77 l -1.958,-1.942 v -5.91 l 1.958,-1.953 h -1.958 l -1.937,-5.887 -1.957,1.973 v 3.914 l 3.894,13.746 v 3.934 h -3.894 l 1.957,1.941 -9.77,5.907 -1.933,-1.969 -1.969,1.969 h 1.969 l 1.933,1.968 -5.832,3.918 h -1.968 l -1.93,-1.949 -3.902,-1.969 -1.969,-1.968 1.969,3.937 -1.969,3.906 h 5.871 l -9.762,3.93 h -3.902 l -1.953,1.941 -1.953,-1.941 1.953,3.922 -3.895,1.972 h -1.949 l -3.91,-1.972 v -5.875 l 1.953,-3.934 -1.953,1.957 v -7.843 l -3.895,-7.848 v -3.934 h 1.942 v -1.945 h 1.953 l 1.953,-1.996 h -1.953 l -1.953,1.996 H 4.156 l 5.848,-19.641 1.953,-3.918 1.957,1.95 v -5.891 l 3.891,-3.918 h 1.953 l 7.804,3.918 h 1.942 l -7.793,-7.859 1.953,3.941 h -7.801 v -1.953 3.91 l -9.754,9.82 v 1.953 H 4.156 l -1.949,-1.953 1.949,-9.82 -1.949,-3.91 3.902,-3.93 v -5.883 h 1.942 l -1.942,-1.972 3.895,-3.934 H 8.051 v -1.973 l 13.66,-5.878 h -1.953 l -5.844,1.957 h -1.957 l -3.906,1.98 H 6.109 v -1.98 l 3.895,-7.829 -1.953,-3.945 -1.942,11.774 -1.953,7.859 v 7.848 H 2.207 v -5.879 l 1.949,-17.657 3.895,-11.785 1.953,-7.847 1.953,-15.711 3.906,-7.836 v -5.903 l 1.942,-5.898 V 70.227 l -1.942,-9.825 1.942,3.93 V 62.367 L 16.801,60.5 19.496,58.523 v -3.894 l 1.957,-3.93 -1.957,-5.918 3.906,-1.945 1.95,-3.934 3.894,-1.964 v -7.86 h 1.965 V 25.16 h 3.902 v -1.957 l 3.93,-8.375 c 0,0 23,-4.664 23.5,-4.664 0.5,0 10.832,1.332 11.832,1.832 1,0.5 11.836,0.5 11.836,0.5 l 9.832,-0.668 6.668,-0.664 12.332,-1 18.5,-1.836 15.832,2.668 11,2.168 17.168,2.5 c 0,0 13.562,2.742 19.699,5.832 6.133,3.09 16.301,13.543 19.801,20.356 3.5,6.812 12.668,11.476 16.5,22.312 3.832,10.832 4.582,34.914 2.332,57.414 -2.25,22.5 -0.941,25.82 -5.25,70 -1,10.25 -9.891,12.25 -15.391,18.75 -13.5,15.957 -13.285,19.149 -26.422,31.75 -12.503,12 -19.687,6 -41.187,18.25 -21.5,12.25 -14.25,22.75 -13.25,29 1,6.25 1.25,22.914 8.75,29.832 7.5,6.918 24.75,14.668 3.5,17.918 -21.25,3.25 -41,6 -60,1.5 -19,-4.5 -27.855,-13.199 -27.855,-13.199 z"
                 style="fill:#aade87;fill-opacity:0.533333;fill-rule:nonzero;stroke:none"
                 id="path1177" /><g
                 transform="scale(1,-1)"
                 id="g1181"
                 style="fill:#aade87"><path
                   d="m 58.77,-325.379 h -1.958 l -3.894,3.918 h -1.945 l -7.801,9.828 -1.969,1.965 1.969,3.922 -1.969,-1.961 v -1.961 l 1.969,-3.934 1.933,-1.957 h -1.933 l 1.933,-1.988 -5.832,3.945 h -5.859 l -1.941,-1.957 h 1.941 l -5.852,-3.921 -3.898,1.933 -3.906,5.914 v 3.926 l -1.953,5.863 h -3.891 v 2 l -3.91,3.903 H 8.051 v 1.984 l -1.942,1.945 -5.859,17.657 v 7.855 l 1.957,7.848 3.902,7.879 3.895,5.863 3.91,1.957 3.891,-3.899 -1.942,-1.972 h 1.942 v -3.934 l 3.906,-3.91 7.793,-1.984 h 7.801 l -1.93,-1.969 1.93,1.969 3.898,-1.969 v -3.906 l -3.898,-3.926 -3.891,-1.953 v -1.981 l 3.891,1.981 5.867,-7.852 -1.969,5.871 -3.898,1.981 3.898,3.906 1.969,-1.953 v 3.926 l 1.933,1.965 v 1.941 h -1.933 l -1.969,5.883 v 9.828 l -1.93,3.953 7.793,5.867 3.907,-1.972 5.839,7.847 5.86,5.883 v 3.937 l 3.902,1.969 h 1.949 l 1.954,5.879 h 5.847 l 1.949,-3.926 1.946,1.985 9.754,-9.844 -3.895,-3.906 1.942,-5.871 1.953,-7.848 3.898,-1.996 -1.941,-1.957 v -1.942 l 1.941,3.899 v -1.957 h 1.953 l 3.903,3.953 -1.961,1.926 -1.942,-1.926 H 91.93 v 1.926 l -1.957,5.922 h 1.957 -1.957 v 3.894 l 7.793,3.934 9.761,-1.957 h 7.805 l 5.867,-3.93 -1.972,-1.941 h -1.934 1.934 l -1.934,-3.953 1.934,3.953 h 1.972 l 7.785,-5.922 5.84,1.969 5.864,-5.891 h 7.8 l 3.903,1.996 1.953,7.848 3.898,3.894 h 5.848 l 3.894,3.934 h 3.911 v -1.957 l 3.898,-1.977 h 7.797 l 7.816,3.934 5.836,3.918 -3.89,1.968 -5.856,-5.886 -3.906,-1.957 h -1.945 v 1.957 l -1.957,-1.957 h -1.938 l -5.855,3.906 -3.911,1.969 h -5.832 l -7.808,-3.918 -1.953,3.918 v -1.969 l 1.953,-3.906 v -1.977 l -1.953,-1.953 -1.957,-5.894 -1.946,-1.969 -9.758,3.941 -5.847,3.922 h -5.86 l -1.933,1.953 3.894,3.934 -1.961,1.949 v -1.949 h -1.933 l -1.957,1.949 -5.84,7.859 v -3.922 l -3.918,1.969 h -3.895 l -1.953,3.938 h -1.632 l -0.282,1.941 3.867,5.879 -1.953,5.898 1.953,-1.96 1.958,-3.938 h 1.937 l 1.957,3.938 -1.957,-1.942 -1.937,1.942 1.937,1.96 -1.937,-1.96 -1.958,3.937 -3.898,1.973 1.945,5.867 -1.945,1.973 h 1.945 l 1.953,3.921 -1.953,1.95 -1.945,-1.95 v -1.968 l -1.953,-1.953 v -7.84 l 1.953,-1.973 v -5.879 l -2.52,-1.996 0.567,-13.727 -11.699,11.782 -13.657,9.82 -1.949,1.973 3.895,3.894 1.949,-1.941 v 5.887 l -1.949,-1.973 -3.895,-1.973 -3.906,-3.894 -1.941,-5.91 h -1.954 l -1.949,1.96 v -1.96 l -1.953,-1.942 H 58.77 l -1.958,1.942 v 5.91 l 1.958,1.953 h -1.958 l -1.937,5.887 -1.957,-1.973 v -3.914 l 3.894,-13.746 v -3.934 h -3.894 l 1.957,-1.941 -9.77,-5.907 -1.933,1.969 -1.969,-1.969 h 1.969 l 1.933,-1.968 -5.832,-3.918 h -1.968 l -1.93,1.949 -3.902,1.969 -1.969,1.968 1.969,-3.937 -1.969,-3.906 h 5.871 l -9.762,-3.93 h -3.902 l -1.953,-1.941 -1.953,1.941 1.953,-3.922 -3.895,-1.972 h -1.949 l -3.91,1.972 v 5.875 l 1.953,3.934 -1.953,-1.957 v 7.843 l -3.895,7.848 v 3.934 h 1.942 v 1.945 h 1.953 l 1.953,1.996 h -1.953 l -1.953,-1.996 H 4.156 l 5.848,19.641 1.953,3.918 1.957,-1.95 v 5.891 l 3.891,3.918 h 1.953 l 7.804,-3.918 h 1.942 l -7.793,7.859 1.953,-3.941 h -7.801 v 1.953 -3.91 l -9.754,-9.82 v -1.953 H 4.156 l -1.949,1.953 1.949,9.82 -1.949,3.91 3.902,3.93 v 5.883 h 1.942 l -1.942,1.972 3.895,3.934 H 8.051 v 1.973 l 13.66,5.878 h -1.953 l -5.844,-1.957 h -1.957 l -3.906,-1.98 H 6.109 v 1.98 l 3.895,7.829 -1.953,3.945 -1.942,-11.774 -1.953,-7.859 v -7.848 H 2.207 v 5.879 l 1.949,17.657 3.895,11.785 1.953,7.847 1.953,15.711 3.906,7.836 v 5.903 l 1.942,5.898 v 17.648 l -1.942,9.825 1.942,-3.93 v 1.965 l -1.004,1.867 2.695,1.977 v 3.894 l 1.957,3.93 -1.957,5.918 3.906,1.945 1.95,3.934 3.894,1.964 v 7.86 h 1.965 v 3.918 h 3.902 v 1.957 l 3.93,8.375 c 0,0 23,4.664 23.5,4.664 0.5,0 10.832,-1.332 11.832,-1.832 1,-0.5 11.836,-0.5 11.836,-0.5 l 9.832,0.668 6.668,0.664 12.332,1 18.5,1.836 15.832,-2.668 11,-2.168 17.168,-2.5 c 0,0 13.562,-2.742 19.699,-5.832 6.133,-3.09 16.301,-13.543 19.801,-20.356 3.5,-6.812 12.668,-11.476 16.5,-22.312 3.832,-10.832 4.582,-34.914 2.332,-57.414 -2.25,-22.5 -0.941,-25.82 -5.25,-70 -1,-10.25 -9.891,-12.25 -15.391,-18.75 -13.5,-15.957 -13.285,-19.149 -26.422,-31.75 -12.503,-12 -19.687,-6 -41.187,-18.25 -21.5,-12.25 -14.25,-22.75 -13.25,-29 1,-6.25 1.25,-22.914 8.75,-29.832 7.5,-6.918 24.75,-14.668 3.5,-17.918 -21.25,-3.25 -41,-6 -60,-1.5 -19,4.5 -27.855,13.199 -27.855,13.199 z"
                   style="fill:#aade87;stroke:#231f20;stroke-width:0.5;stroke-linecap:butt;stroke-linejoin:bevel;stroke-miterlimit:10;stroke-dasharray:none;stroke-opacity:1"
                   id="path1179" /></g><path
                 d="m 17.828,248.922 5.86,5.914 3.898,1.93 h 11.707 v -11.758 h -3.898 v 1.937 h -1.961 v -3.894 h -3.907 v 1.957 -1.957 l 1.969,-1.996 v -1.93 h -3.91 l -3.898,3.926 1.949,-1.996 h -5.856 l -1.953,5.89 z"
                 style="fill:#aade87;fill-opacity:0.533333;fill-rule:nonzero;stroke:none"
                 id="path1183" /><path
                 d="m 17.828,248.922 5.86,5.914 3.898,1.93 h 11.707 v -11.758 h -3.898 v 1.937 h -1.961 v -3.894 h -3.907 v 1.957 -1.957 l 1.969,-1.996 v -1.93 h -3.91 l -3.898,3.926 1.949,-1.996 h -5.856 l -1.953,5.89 z"
                 style="fill:#aade87;fill-opacity:0.533333;fill-rule:nonzero;stroke:none"
                 id="path1185" /><g
                 transform="scale(1,-1)"
                 id="g1189"
                 style="fill:#aade87"><path
                   d="m 17.828,-248.922 5.86,-5.914 3.898,-1.93 h 11.707 v 11.758 h -3.898 v -1.937 h -1.961 v 3.894 h -3.907 v -1.957 1.957 l 1.969,1.996 v 1.93 h -3.91 l -3.898,-3.926 1.949,1.996 h -5.856 l -1.953,-5.89 z"
                   style="fill:#aade87;stroke:#231f20;stroke-width:0.5;stroke-linecap:butt;stroke-linejoin:bevel;stroke-miterlimit:10;stroke-dasharray:none;stroke-opacity:1"
                   id="path1187" /></g></g></g></g></g><g
         id="g1197"
         style="fill:#ccffaa"><g
           id="g1199"
           style="fill:#ccffaa" /><g
           id="g1217"
           style="fill:#ccffaa"><g
             clip-path="url(#clipPath1203)"
             id="g1215"
             style="fill:#ccffaa"><g
               id="g1213"
               style="fill:#ccffaa"><path
                 d="m 152.426,221.363 1.953,3.918 7.809,-3.918 h 5.835 l 3.907,1.969 5.851,3.906 h 1.942 l 1.957,-1.957 v 1.957 h 1.945 l 3.906,-1.957 5.856,-5.886 3.89,1.968 -5.836,3.918 -7.816,3.934 h -7.797 l -3.898,-1.977 v -1.957 h -3.907 l -3.898,3.934 h -5.848 l -3.898,3.894 -1.953,7.848 -3.903,2 h -7.8 l -1.953,4.039 1.437,6.168 2.336,5 5.117,2.168 c 21.5,-12.25 28.684,-6.25 41.188,-18.25 13.136,-12.605 12.925,-15.797 26.425,-31.75 5.5,-6.5 14.387,-8.5 15.387,-18.75 4.309,-44.184 3,-47.5 5.25,-70 2.25,-22.5 1.5,-46.586 -2.332,-57.418 -3.836,-10.832 -13,-15.5 -16.5,-22.312 -3.5,-6.813 -13.672,-17.266 -19.801,-20.356 -6.132,-3.09 -19.699,-5.832 -19.699,-5.832 l -17.168,-2.5 -11,-2.168 -15.832,-2.664 -18.5,1.832 -12.336,1 -6.664,0.668 -9.836,0.664 c 0,0 -10.832,0 -11.836,-0.5 -1,-0.5 -11.332,-1.832 -11.832,-1.832 -0.5,0 -23.496,4.668 -23.496,4.668 l -3.926,8.371 V 25.16 H 31.25 v 3.922 h -1.969 v 7.856 l -3.89,1.964 -1.946,3.934 -3.906,1.945 1.953,5.918 -1.953,3.93 v 3.891 l -2.699,1.98 1.008,1.867 v 1.965 l -1.942,-3.93 1.942,9.825 v 17.648 l -1.942,5.898 v 5.903 l -3.91,7.836 -1.953,15.711 6.664,1.609 9.668,-3 10.332,-5.168 c 0,0 17.336,-3.668 18.168,-3.668 0.832,0 9.668,1.336 13.832,3.168 4.168,1.832 13.168,5.668 13.168,5.668 l 11.668,7.5 7.832,9.5 12.5,8.672 c 0,0 7.168,15.828 7.832,17.16 0.668,1.332 22.668,36.332 22.668,36.332 l 7.5,15.801 z"
                 style="fill:#ccffaa;fill-opacity:0.533333;fill-rule:nonzero;stroke:none"
                 id="path1205" /><path
                 d="m 152.426,221.363 1.953,3.918 7.809,-3.918 h 5.835 l 3.907,1.969 5.851,3.906 h 1.942 l 1.957,-1.957 v 1.957 h 1.945 l 3.906,-1.957 5.856,-5.886 3.89,1.968 -5.836,3.918 -7.816,3.934 h -7.797 l -3.898,-1.977 v -1.957 h -3.907 l -3.898,3.934 h -5.848 l -3.898,3.894 -1.953,7.848 -3.903,2 h -7.8 l -1.953,4.039 1.437,6.168 2.336,5 5.117,2.168 c 21.5,-12.25 28.684,-6.25 41.188,-18.25 13.136,-12.605 12.925,-15.797 26.425,-31.75 5.5,-6.5 14.387,-8.5 15.387,-18.75 4.309,-44.184 3,-47.5 5.25,-70 2.25,-22.5 1.5,-46.586 -2.332,-57.418 -3.836,-10.832 -13,-15.5 -16.5,-22.312 -3.5,-6.813 -13.672,-17.266 -19.801,-20.356 -6.132,-3.09 -19.699,-5.832 -19.699,-5.832 l -17.168,-2.5 -11,-2.168 -15.832,-2.664 -18.5,1.832 -12.336,1 -6.664,0.668 -9.836,0.664 c 0,0 -10.832,0 -11.836,-0.5 -1,-0.5 -11.332,-1.832 -11.832,-1.832 -0.5,0 -23.496,4.668 -23.496,4.668 l -3.926,8.371 V 25.16 H 31.25 v 3.922 h -1.969 v 7.856 l -3.89,1.964 -1.946,3.934 -3.906,1.945 1.953,5.918 -1.953,3.93 v 3.891 l -2.699,1.98 1.008,1.867 v 1.965 l -1.942,-3.93 1.942,9.825 v 17.648 l -1.942,5.898 v 5.903 l -3.91,7.836 -1.953,15.711 6.664,1.609 9.668,-3 10.332,-5.168 c 0,0 17.336,-3.668 18.168,-3.668 0.832,0 9.668,1.336 13.832,3.168 4.168,1.832 13.168,5.668 13.168,5.668 l 11.668,7.5 7.832,9.5 12.5,8.672 c 0,0 7.168,15.828 7.832,17.16 0.668,1.332 22.668,36.332 22.668,36.332 l 7.5,15.801 z"
                 style="fill:#ccffaa;fill-opacity:0.533333;fill-rule:nonzero;stroke:none"
                 id="path1207" /><g
                 transform="scale(1,-1)"
                 id="g1211"
                 style="fill:#ccffaa"><path
                   d="m 152.426,-221.363 1.953,-3.918 7.809,3.918 h 5.835 l 3.907,-1.969 5.851,-3.906 h 1.942 l 1.957,1.957 v -1.957 h 1.945 l 3.906,1.957 5.856,5.886 3.89,-1.968 -5.836,-3.918 -7.816,-3.934 h -7.797 l -3.898,1.977 v 1.957 h -3.907 l -3.898,-3.934 h -5.848 l -3.898,-3.894 -1.953,-7.848 -3.903,-2 h -7.8 l -1.953,-4.039 1.437,-6.168 2.336,-5 5.117,-2.168 c 21.5,12.25 28.684,6.25 41.188,18.25 13.136,12.605 12.925,15.797 26.425,31.75 5.5,6.5 14.387,8.5 15.387,18.75 4.309,44.184 3,47.5 5.25,70 2.25,22.5 1.5,46.586 -2.332,57.418 -3.836,10.832 -13,15.5 -16.5,22.312 -3.5,6.813 -13.672,17.266 -19.801,20.356 -6.132,3.09 -19.699,5.832 -19.699,5.832 l -17.168,2.5 -11,2.168 -15.832,2.664 -18.5,-1.832 -12.336,-1 -6.664,-0.668 -9.836,-0.664 c 0,0 -10.832,0 -11.836,0.5 -1,0.5 -11.332,1.832 -11.832,1.832 -0.5,0 -23.496,-4.668 -23.496,-4.668 l -3.926,-8.371 V -25.16 H 31.25 v -3.922 h -1.969 v -7.856 l -3.89,-1.964 -1.946,-3.934 -3.906,-1.945 1.953,-5.918 -1.953,-3.93 v -3.891 l -2.699,-1.98 1.008,-1.867 v -1.965 l -1.942,3.93 1.942,-9.825 v -17.648 l -1.942,-5.898 v -5.903 l -3.91,-7.836 -1.953,-15.711 6.664,-1.609 9.668,3 10.332,5.168 c 0,0 17.336,3.668 18.168,3.668 0.832,0 9.668,-1.336 13.832,-3.168 4.168,-1.832 13.168,-5.668 13.168,-5.668 l 11.668,-7.5 7.832,-9.5 12.5,-8.672 c 0,0 7.168,-15.828 7.832,-17.16 0.668,-1.332 22.668,-36.332 22.668,-36.332 l 7.5,-15.801 z"
                   style="fill:#ccffaa;stroke:#231f20;stroke-width:0.75;stroke-linecap:butt;stroke-linejoin:bevel;stroke-miterlimit:10;stroke-dasharray:none;stroke-opacity:1"
                   id="path1209" /></g></g></g></g></g><g
         id="g1219"><g
           id="g1221"><g
             id="g1223"
             clip-path="url(#clipPath1227)"><g
               id="g1229"><path
                 d="m 181.883,234.016 c 0,2.937 -2.363,5.336 -5.305,5.336 -2.91,0 -5.289,-2.399 -5.289,-5.336 0,-2.942 2.379,-5.332 5.289,-5.332 2.942,0 5.305,2.39 5.305,5.332"
                 style="fill:#ffffff;fill-opacity:1;fill-rule:nonzero;stroke:none"
                 id="path1231" /><g
                 id="g1233"
                 transform="scale(1,-1)"><path
                   d="m 181.883,-234.016 c 0,-2.937 -2.363,-5.336 -5.305,-5.336 -2.91,0 -5.289,2.399 -5.289,5.336 0,2.942 2.379,5.332 5.289,5.332 2.942,0 5.305,-2.39 5.305,-5.332 z"
                   style="fill:none;stroke:#231f20;stroke-width:0.25;stroke-linecap:butt;stroke-linejoin:miter;stroke-miterlimit:4;stroke-dasharray:none;stroke-opacity:1"
                   id="path1235" /></g><path
                 d="m 179.52,234.016 c 0,1.609 -1.317,2.968 -2.938,2.968 -1.605,0 -2.918,-1.359 -2.918,-2.968 0,-1.645 1.313,-2.954 2.918,-2.954 1.621,0 2.938,1.309 2.938,2.954"
                 style="fill:#231f20;fill-opacity:1;fill-rule:nonzero;stroke:none"
                 id="path1237" /><g
                 id="g1239"
                 transform="scale(1,-1)"><path
                   d="m 179.52,-234.016 c 0,-1.609 -1.317,-2.968 -2.938,-2.968 -1.605,0 -2.918,1.359 -2.918,2.968 0,1.645 1.313,2.954 2.918,2.954 1.621,0 2.938,-1.309 2.938,-2.954 z"
                   style="fill:none;stroke:#231f20;stroke-width:0.05;stroke-linecap:butt;stroke-linejoin:miter;stroke-miterlimit:4;stroke-dasharray:none;stroke-opacity:1"
                   id="path1241" /></g><path
                 d="m 202.699,154.668 c 0,1.945 -1.582,3.57 -3.527,3.57 -1.953,0 -3.527,-1.625 -3.527,-3.57 0,-1.965 1.574,-3.563 3.527,-3.563 1.945,0 3.527,1.598 3.527,3.563"
                 style="fill:#ffffff;fill-opacity:1;fill-rule:nonzero;stroke:none"
                 id="path1243" /><g
                 id="g1245"
                 transform="scale(1,-1)"><path
                   d="m 202.699,-154.668 c 0,-1.945 -1.582,-3.57 -3.527,-3.57 -1.953,0 -3.527,1.625 -3.527,3.57 0,1.965 1.574,3.563 3.527,3.563 1.945,0 3.527,-1.598 3.527,-3.563 z"
                   style="fill:none;stroke:#231f20;stroke-width:0.25;stroke-linecap:butt;stroke-linejoin:miter;stroke-miterlimit:4;stroke-dasharray:none;stroke-opacity:1"
                   id="path1247" /></g><path
                 d="m 201.117,154.668 c 0,1.086 -0.875,1.957 -1.945,1.957 -1.078,0 -1.949,-0.871 -1.949,-1.957 0,-1.082 0.871,-1.98 1.949,-1.98 1.07,0 1.945,0.898 1.945,1.98"
                 style="fill:#231f20;fill-opacity:1;fill-rule:nonzero;stroke:none"
                 id="path1249" /><g
                 id="g1251"
                 transform="scale(1,-1)"><path
                   d="m 201.117,-154.668 c 0,-1.086 -0.875,-1.957 -1.945,-1.957 -1.078,0 -1.949,0.871 -1.949,1.957 0,1.082 0.871,1.98 1.949,1.98 1.07,0 1.945,-0.898 1.945,-1.98 z"
                   style="fill:none;stroke:#231f20;stroke-width:0.25;stroke-linecap:butt;stroke-linejoin:miter;stroke-miterlimit:4;stroke-dasharray:none;stroke-opacity:1"
                   id="path1253" /></g></g></g></g></g><g
         id="g1255" /><g
         id="g1275"><g
           id="g1277"><g
             id="g1279"
             clip-path="url(#clipPath1283)"><g
               id="g1285"><g
                 id="g1287"
                 transform="scale(1,-1)" /><g
                 id="g1291"
                 transform="scale(1,-1)" /><g
                 id="g1295"
                 transform="scale(1,-1)"><path
                   d="M 0,-4.8359304 H 273.293 V -347.547 L 0,-347.63659 Z"
                   style="fill:none;stroke:#231f20;stroke-width:0.75;stroke-linecap:butt;stroke-linejoin:miter;stroke-miterlimit:10;stroke-dasharray:none;stroke-opacity:1"
                   id="path1297"
                   sodipodi:nodetypes="ccccc" /></g></g></g></g></g><g
         id="g1299"
         transform="scale(1,-1)"><path
           d="m 273.066,-25.16 -237.953,1.957 v -1.957 h -3.898 v -3.918 h -1.973 v -7.86 l -3.89,-1.964 -1.95,-3.934 -3.906,-1.945 1.957,-5.918 -1.957,-3.93 v -3.894 L 16.801,-60.5"
           style="fill:none;stroke:#231f20;stroke-width:1;stroke-linecap:butt;stroke-linejoin:bevel;stroke-miterlimit:10;stroke-dasharray:7, 5;stroke-dashoffset:0;stroke-opacity:1"
           id="path1301" /></g><g
         id="g1303"
         transform="scale(1,-1)"><path
           d="m 273.066,-276.391 -7.804,3.911 -17.559,3.929 -15.598,-1.953 -9.742,-3.945 -5.867,-3.906 -15.601,3.906 -62.418,-31.391 v -3.926 h -7.805 l -5.836,1.961 h -5.863 l -25.36,-5.894 -9.738,3.933 -21.465,-1.964 -11.695,1.964 H 33.148 l -1.933,-3.933 -4.664,-5.461"
           style="fill:none;stroke:#231f20;stroke-width:1;stroke-linecap:butt;stroke-linejoin:bevel;stroke-miterlimit:10;stroke-dasharray:7, 5;stroke-dashoffset:0;stroke-opacity:1"
           id="path1305" /></g><g
         id="g1307" /><text
         transform="translate(81.970644,57.729029)"
         style="font-variant:normal;font-weight:normal;font-size:12px;font-family:Arimo;-inkscape-font-specification:Arimo;writing-mode:lr-tb;fill:#000000;fill-opacity:1;fill-rule:nonzero;stroke:none"
         id="text1315"><tspan
           x="0 6.6719942 13.343988 17.339985 24.01198 30.683975"
           y="0"
           sodipodi:role="line"
           id="tspan1311">narang</tspan><tspan
           x="-58.535049 -55.211056 -48.539059 -41.867065 -35.195072 -29.195076 -25.871078 -19.871084 -13.199089 -3.2030973 3.4688971"
           y="20.829823"
           sodipodi:role="line"
           id="tspan1313">fogny kombo</tspan></text><text
         transform="translate(129.56478,78.407764)"
         style="font-variant:normal;font-weight:normal;font-size:20px;font-family:Arimo;-inkscape-font-specification:Arimo;writing-mode:lr-tb;fill:#000000;fill-opacity:1;fill-rule:nonzero;stroke:none"
         id="text1319"><tspan
           x="0 13.320008 26.640017 41.080029 54.400036 69.940048 83.260056"
           y="0"
           sodipodi:role="line"
           id="tspan1317">SENEGAL</tspan></text><text
         transform="translate(106.58558,126.55327)"
         style="font-style:normal;font-variant:normal;font-weight:600;font-stretch:normal;font-size:16px;font-family:'Linux Libertine O';-inkscape-font-specification:'Linux Libertine O Semi-Bold';writing-mode:lr-tb;fill:#000000;fill-opacity:1;fill-rule:nonzero;stroke:none"
         id="text1323"><tspan
           x="0 5.9679956 14.895988 23.711983 28.911978 37.007973 41.007969 49.727962 58.655956 67.471947 77.327942"
           y="0"
           sodipodi:role="line"
           id="tspan1321">J칩ola F칩o침i</tspan></text><text
         transform="translate(138.27529,100.45166)"
         style="font-variant:normal;font-weight:normal;font-size:12px;font-family:Arimo;-inkscape-font-specification:Arimo;writing-mode:lr-tb;fill:#000000;fill-opacity:1;fill-rule:nonzero;stroke:none"
         id="text1357"><tspan
           x="0 3.3239973 9.9959917 16.667986 23.339981"
           y="0"
           sodipodi:role="line"
           id="tspan1325">fogny</tspan><tspan
           x="-4.5012321 -1.177235 5.4947596 12.166754 18.838749 24.838743 28.162741 34.162735 40.834728 43.498726 50.170723 56.842716 63.514709 70.186707 76.186699"
           y="85.657463"
           sodipodi:role="line"
           id="tspan1327">fogny kalounaye</tspan><tspan
           x="-17.639326 -10.967331 -4.2953362 -1.6313386 5.0406556"
           y="108.18796"
           sodipodi:role="line"
           id="tspan1329">buluf</tspan><tspan
           x="-73.102005 -66.430016 -59.758018 -53.758022 -51.094025 -48.430027 -41.758034"
           y="76.370346"
           sodipodi:role="line"
           id="tspan1331">gusilay</tspan><tspan
           x="-106.86836 -100.86836 -94.196373 -90.200371 -83.528381"
           y="60.838715"
           sodipodi:role="line"
           id="tspan1333">karon</tspan><tspan
           x="-123.62296 -116.95097 -114.28697 -111.62297 -105.62298"
           y="101.21372"
           sodipodi:role="line"
           id="tspan1335">bliss</tspan><tspan
           x="-96.119644 -90.119652 -83.447655 -77.447662"
           y="133.7343"
           sodipodi:role="line"
           id="tspan1337">kasa</tspan><tspan
           x="-101.77486 -95.102859 -89.102867 -82.43087 -75.758881 -73.094879 -66.422882 -59.750889 -57.086891 -50.414898"
           y="145.57063"
           sodipodi:role="line"
           id="tspan1339">esuulaalur</tspan><tspan
           x="-36.323441 -29.651447 -22.979452 -16.307459 -13.64346 -6.9714661"
           y="148.2507"
           sodipodi:role="line"
           id="tspan1341">banjal</tspan><tspan
           x="-19.311501 -12.639505 -9.9755077 -3.3035133"
           y="162.81429"
           sodipodi:role="line"
           id="tspan1343">elun</tspan><tspan
           x="-137.84378 -131.84378 -123.17979 -116.5078 -109.8358 -106.5118 -99.839806"
           y="170.66415"
           sodipodi:role="line"
           id="tspan1345">kwaatay</tspan><tspan
           x="-123.65244 -117.65245 -110.98045 -104.30846 -100.31246 -93.640472 -86.968475"
           y="201.14964"
           sodipodi:role="line"
           id="tspan1347">keeraak</tspan><tspan
           x="-69.845039 -63.173046 -57.173054 -50.501057"
           y="201.23453"
           sodipodi:role="line"
           id="tspan1349">ayun</tspan><tspan
           x="-42.940632 -36.268639 -30.268642 -24.268648 -21.60465"
           y="190.05182"
           sodipodi:role="line"
           id="tspan1351">essin</tspan><tspan
           x="-31.347118 -24.675123 -18.003128 -12.003134 -5.3311396"
           y="202.78177"
           sodipodi:role="line"
           id="tspan1353">bayot</tspan><tspan
           x="-54.692032 -48.020035 -45.356037 -38.684044 -28.688051 -22.016058"
           y="224.93575"
           sodipodi:role="line"
           id="tspan1355">ejamat</tspan></text><text
         transform="translate(39.519062,261.66884)"
         style="font-style:normal;font-variant:normal;font-weight:600;font-stretch:normal;font-size:16px;font-family:'Linux Libertine O';-inkscape-font-specification:'Linux Libertine O Semi-Bold';writing-mode:lr-tb;fill:#000000;fill-opacity:1;fill-rule:nonzero;stroke:none"
         id="text1363"><tspan
           x="0 8.8159933 14.543989 24.447981 32.271976 39.119972 43.119968 49.087963 58.015957 66.831947 72.031944"
           y="0"
           sodipodi:role="line"
           id="tspan1359">other J칩ola</tspan><tspan
           x="0 3.9999969 12.46399 20.559984 27.40798 32.559975 40.383968 46.111965 51.263962 59.087955"
           y="19.999985"
           sodipodi:role="line"
           id="tspan1361"> varieties</tspan></text><text
         transform="translate(168.4617,304.758)"
         style="font-variant:normal;font-weight:normal;font-size:20px;font-family:Arimo;-inkscape-font-specification:Arimo;writing-mode:lr-tb;fill:#000000;fill-opacity:1;fill-rule:nonzero;stroke:none"
         id="text1369"><tspan
           x="0 15.54001 29.980019 35.520023 49.960033 63.280041 76.600052"
           y="0"
           sodipodi:role="line"
           id="tspan1365">GUINEA-</tspan><tspan
           x="0 13.320008 18.860012 32.180019 45.500031 58.820038"
           y="25.000015"
           sodipodi:role="line"
           id="tspan1367">BISSAU</tspan></text><text
         transform="translate(202.91734,161.28702)"
         style="font-variant:normal;font-weight:normal;font-size:18px;font-family:'Linux Libertine O';-inkscape-font-specification:LinLibertineOI;writing-mode:lr-tb;fill:#000000;fill-opacity:1;fill-rule:nonzero;stroke:none"
         id="text1375"><tspan
           x="0 10.026 14.994 23.58 32.903999 40.950001 50.273998"
           y="0"
           sodipodi:role="line"
           id="tspan1371">Bignona</tspan><tspan
           x="-21.231684 -10.827684 -5.859684 2.726316 12.104316 17.072315 26.396317 33.398315 42.740314 50.786316"
           y="81.545151"
           sodipodi:role="line"
           id="tspan1373">Ziguinchor</tspan></text></g></g></svg>
