<?xml version="1.0" encoding="UTF-8" standalone="no"?>
<!-- Created with Inkscape (http://www.inkscape.org/) -->

<svg
   version="1.1"
   id="svg20625"
   width="868.91309"
   height="554.42212"
   viewBox="0 0 868.91309 554.42212"
   sodipodi:docname="13_map.svg"
   inkscape:version="1.1.2 (0a00cf5339, 2022-02-04)"
   xmlns:inkscape="http://www.inkscape.org/namespaces/inkscape"
   xmlns:sodipodi="http://sodipodi.sourceforge.net/DTD/sodipodi-0.dtd"
   xmlns:xlink="http://www.w3.org/1999/xlink"
   xmlns="http://www.w3.org/2000/svg"
   xmlns:svg="http://www.w3.org/2000/svg">
  <defs
     id="defs20629">
    <filter
       inkscape:collect="always"
       style="color-interpolation-filters:sRGB"
       id="filter21513"
       x="-0.058084049"
       y="-0.084845535"
       width="1.1161681"
       height="1.1696911">
      <feGaussianBlur
         inkscape:collect="always"
         stdDeviation="1.4291817"
         id="feGaussianBlur21515" />
    </filter>
    <filter
       inkscape:collect="always"
       style="color-interpolation-filters:sRGB"
       id="filter23468"
       x="-0.051785656"
       y="-0.11301751"
       width="1.1035713"
       height="1.226035">
      <feGaussianBlur
         inkscape:collect="always"
         stdDeviation="8.6318374"
         id="feGaussianBlur23466" />
    </filter>
    <filter
       inkscape:collect="always"
       style="color-interpolation-filters:sRGB"
       id="filter23470"
       x="-0.11606141"
       y="-0.19082073"
       width="1.2321229"
       height="1.3816415">
      <feGaussianBlur
         inkscape:collect="always"
         stdDeviation="4.234796"
         id="feGaussianBlur23472" />
    </filter>
  </defs>
  <sodipodi:namedview
     id="namedview20627"
     pagecolor="#ffffff"
     bordercolor="#666666"
     borderopacity="1.0"
     inkscape:pageshadow="2"
     inkscape:pageopacity="0.0"
     inkscape:pagecheckerboard="0"
     showgrid="false"
     inkscape:zoom="1.5446136"
     inkscape:cx="40.7869"
     inkscape:cy="249.90069"
     inkscape:window-width="3840"
     inkscape:window-height="2136"
     inkscape:window-x="2560"
     inkscape:window-y="0"
     inkscape:window-maximized="1"
     inkscape:current-layer="layer2" />
  <g
     inkscape:groupmode="layer"
     inkscape:label="https://commons.wikimedia.org/wiki/File:Middle_East_topographic_map.png"
     id="g20631"
     style="display:inline"
     transform="translate(-137.20833,-11.55331)">
    <image
       width="1212.6316"
       height="682.10529"
       preserveAspectRatio="none"
       style="image-rendering:optimizeQuality"
       xlink:href="Middle_East_topographic_map.png"
       id="image20633" />
  </g>
  <g
     inkscape:groupmode="layer"
     id="layer1"
     inkscape:label="orig"
     style="display:none;opacity:0.908669"
     transform="translate(-137.20833,-11.55331)">
    <image
       width="841.28613"
       height="437.73111"
       preserveAspectRatio="none"
       style="image-rendering:optimizeQuality"
       xlink:href="Vedic%20map%20to%20be%20used%20as%20a%20model%20for%20redrawing.png"
       id="image20747"
       x="152.15962"
       y="32.653458" />
  </g>
  <g
     inkscape:groupmode="layer"
     id="layer6"
     inkscape:label="yellow"
     transform="translate(-137.20833,-11.55331)">
    <path
       style="font-variation-settings:normal;opacity:1;vector-effect:none;fill:#ccff00;fill-opacity:1;fill-rule:evenodd;stroke:none;stroke-width:1px;stroke-linecap:butt;stroke-linejoin:miter;stroke-miterlimit:4;stroke-dasharray:none;stroke-dashoffset:0;stroke-opacity:1;-inkscape-stroke:none;filter:url(#filter21513);stop-color:#000000;stop-opacity:1"
       d="m 248.91305,232.35014 c 0,0 8.17491,-3.62534 9.08676,-3.42347 0.91184,0.20186 7.79675,1.18871 8.92877,1.18871 1.13202,0 4.70432,-1.95728 8.12812,-1.75496 3.4238,0.20231 11.1437,1.11792 12.50807,1.25628 1.36437,0.13836 12.01326,1.85206 12.81549,3.81703 0.80223,1.96496 4.12021,8.82688 4.63327,10.11243 0.51306,1.28554 -2.49793,16.9716 -2.92058,17.81329 -0.42265,0.84168 -6.74901,4.37629 -9.29847,5.67558 -2.54946,1.29929 -9.04072,2.54716 -11.64633,1.06672 -2.60561,-1.48043 -10.32483,-6.69529 -11.64735,-8.46842 -1.32252,-1.77313 -9.6453,-5.93408 -12.04551,-6.72038 -2.40021,-0.78629 -6.30344,-3.43346 -7.39623,-4.03954 -1.09278,-0.60608 -4.08982,-5.29261 -4.03924,-6.34901 0.0506,-1.0564 0.20231,-5.93045 0.20231,-5.93045 z"
       id="path53577" />
  </g>
  <g
     inkscape:groupmode="layer"
     id="layer3"
     inkscape:label="green"
     style="display:inline;opacity:0.577121;mix-blend-mode:normal;filter:url(#filter23468)"
     transform="translate(-137.20833,-11.55331)">
    <path
       style="fill:#66ff00;fill-rule:evenodd;stroke:none;stroke-width:1px;stroke-linecap:butt;stroke-linejoin:miter;stroke-opacity:1"
       d="m 807.2423,200.15099 c 0,0 -16.58422,7.32281 -25.61573,8.92091 -9.03151,1.5981 -18.86628,2.83167 -18.86628,2.83167 0,0 -29.78217,-9.79241 -33.03788,-12.45598 -3.25571,-2.66358 -28.59009,-2.63011 -35.54723,-4.4272 -6.95714,-1.7971 -13.32409,-10.96604 -13.32409,-10.96604 l -31.51956,-3.22023 -9.07862,-12.23286 -9.58219,-12.93184 -14.01883,-10.27527 c 0,0 -10.85639,-17.1917 -11.67047,-18.80584 -0.81409,-1.61414 -12.0819,-20.65865 -12.04318,-22.13767 0.0387,-1.47902 -3.41614,-14.175654 -3.28107,-15.796533 0.13506,-1.620878 7.00653,-60.053198 7.00653,-60.053198 l 369.09664,23.384535 c 0,0 22.95228,20.75999 23.14827,23.583799 0.19599,2.823809 0.78619,29.095897 0.78619,29.095897 l -20.33339,1.18569 -14.80084,8.68081 c 0,0 -10.91637,14.23307 -14.44204,19.7704 -3.52567,5.53734 -8.8303,13.35209 -12.89385,17.5437 -4.06355,4.19162 -5.6119,0.9206 -26.25698,9.94774 -20.64508,9.02715 -33.49609,17.26599 -33.49609,17.26599 0,0 -13.75464,6.59699 -20.2561,8.44507 -6.50145,1.84809 -25.39128,2.92509 -27.16977,3.97241 -1.77848,1.04732 -8.90901,4.73712 -8.90901,4.73712 l -1.91884,4.47999"
       id="path20799"
       sodipodi:nodetypes="cscsscccccsssccscccssscsscc" />
  </g>
  <g
     inkscape:groupmode="layer"
     id="layer4"
     inkscape:label="pink"
     style="display:inline;opacity:0.591763;mix-blend-mode:normal;filter:url(#filter23470)"
     transform="translate(-137.20833,-11.55331)">
    <path
       style="opacity:0.428391;fill:#ff0000;fill-rule:evenodd;stroke:none;stroke-width:1px;stroke-linecap:butt;stroke-linejoin:miter;stroke-opacity:1;filter:url(#filter21513)"
       d="m 807.38103,200.01226 c 0,0 -16.58422,7.32281 -25.61573,8.92091 -9.03151,1.5981 -18.86628,2.83167 -18.86628,2.83167 0,0 -29.78217,-9.79241 -33.03788,-12.45598 -3.25571,-2.66358 -28.59009,-2.63011 -35.54723,-4.4272 -6.95714,-1.7971 -13.32409,-10.96604 -13.32409,-10.96604 l -31.51956,-3.22023 c -4.63774,6.23956 -11.137,15.36003 -11.25294,22.11638 -0.66828,38.94264 4.45072,37.15446 14.85419,40.25988 10.57764,5.01546 27.42286,2.8389 38.13199,7.98835 4.72769,2.27329 11.35564,4.08054 11.80995,8.76525 0.82223,8.4786 6.57157,14.8608 16.84477,16.35915 20.75757,3.0275 26.35093,-11.31126 37.98887,-16.28887 9.59956,-4.10579 25.79674,-6.36495 33.2775,-11.16766 10.43215,-6.69752 15.07252,-15.67994 16.54097,-27.11886 1.7873,-13.92261 9.51096,-21.98087 3.6099,-25.53367 l -1.91884,4.47999"
       id="path20799-2"
       sodipodi:nodetypes="cscssccscsssssscc" />
  </g>
  <g
     inkscape:groupmode="layer"
     id="layer5"
     inkscape:label="orange"
     style="display:inline"
     transform="translate(-137.20833,-11.55331)" />
  <g
     inkscape:groupmode="layer"
     id="layer2"
     inkscape:label="labels"
     style="opacity:1;mix-blend-mode:normal"
     transform="translate(-137.20833,-11.55331)">
    <path
       style="font-variation-settings:normal;opacity:0.428391;vector-effect:none;fill:#ff6600;fill-opacity:1;fill-rule:evenodd;stroke:none;stroke-width:1px;stroke-linecap:butt;stroke-linejoin:miter;stroke-miterlimit:4;stroke-dasharray:none;stroke-dashoffset:0;stroke-opacity:1;-inkscape-stroke:none;filter:url(#filter21513);stop-color:#000000;stop-opacity:1"
       d="m 797.93577,429.79001 c 22.67348,3.18184 44.41869,-11.16325 66.79936,-15.99197 10.2496,-2.21139 20.46931,-4.77925 30.89017,-5.94121 13.65957,-1.52308 30.36033,7.11312 41.21145,-1.32233 4.9843,-3.8747 6.80117,-12.07378 5.25737,-18.19532 -10.64634,-42.21527 -62.80505,-60.46968 -91.42438,-93.27833 -5.45491,-6.2534 -7.65018,-16.34276 -15.24862,-19.67815 -12.94086,-5.68049 -30.72933,-4.61997 -42.24768,3.56914 -6.43941,4.57818 -6.21592,14.53376 -9.6432,21.65271 -4.66032,9.68017 -11.92319,18.27173 -14.83703,28.61261 -2.64183,9.37555 -1.19925,19.4469 -2.07121,29.14844 -0.84247,9.3734 -4.12183,18.71776 -3.05276,28.06802 1.19695,10.4687 3.66329,21.76006 10.42306,29.84287 5.87938,7.0301 14.86782,12.2399 23.94347,13.51352 z"
       id="path20797"
       sodipodi:nodetypes="aaaaaaaaaaaaaa" />
    <text
       xml:space="preserve"
       style="font-size:37.3333px;line-height:125%;font-family:'AR PL UKai CN';-inkscape-font-specification:'AR PL UKai CN';font-variant-ligatures:none;letter-spacing:0px;word-spacing:0px;writing-mode:lr-tb;fill:none;stroke:#000000;stroke-width:1px;stroke-linecap:butt;stroke-linejoin:miter;stroke-opacity:1"
       x="458.99661"
       y="-91.204674"
       id="text25157"><tspan
         sodipodi:role="line"
         id="tspan25155"
         x="458.99661"
         y="-91.204674" /></text>
    <text
       xml:space="preserve"
       style="font-style:italic;font-variant:normal;font-weight:normal;font-stretch:normal;font-size:21.3333px;line-height:100%;font-family:'Linux Libertine O';-inkscape-font-specification:'Linux Libertine O Italic';font-variant-ligatures:none;font-variant-position:normal;font-variant-caps:normal;font-variant-numeric:normal;font-variant-alternates:normal;font-variant-east-asian:normal;font-feature-settings:normal;font-variation-settings:normal;text-indent:0;text-align:center;text-decoration-line:none;text-decoration-style:solid;text-decoration-color:#000000;letter-spacing:0px;word-spacing:0px;text-transform:none;writing-mode:lr-tb;direction:ltr;text-orientation:mixed;dominant-baseline:auto;baseline-shift:baseline;white-space:normal;opacity:1;vector-effect:none;fill:#000000;fill-opacity:1;stroke:none;stroke-width:1px;stroke-linecap:butt;stroke-linejoin:miter;stroke-miterlimit:4;stroke-dasharray:none;stroke-dashoffset:0;stroke-opacity:1;-inkscape-stroke:none;stop-color:#000000;stop-opacity:1"
       x="666.0694"
       y="97.45285"
       id="text28175"><tspan
         sodipodi:role="line"
         id="tspan28173"
         x="666.0694"
         y="97.45285">Andronovo Culture</tspan><tspan
         sodipodi:role="line"
         x="666.0694"
         y="118.78615"
         id="tspan28177">[ca 2000-900 BCE]</tspan></text>
    <text
       xml:space="preserve"
       style="font-style:italic;font-variant:normal;font-weight:normal;font-stretch:normal;font-size:21.3333px;line-height:100%;font-family:'Linux Libertine O';-inkscape-font-specification:'Linux Libertine O Italic';font-variant-ligatures:none;font-variant-position:normal;font-variant-caps:normal;font-variant-numeric:normal;font-variant-alternates:normal;font-variant-east-asian:normal;font-feature-settings:normal;font-variation-settings:normal;text-indent:0;text-align:center;text-decoration-line:none;text-decoration-style:solid;text-decoration-color:#000000;letter-spacing:0px;word-spacing:0px;text-transform:none;writing-mode:lr-tb;direction:ltr;text-orientation:mixed;dominant-baseline:auto;baseline-shift:baseline;text-anchor:middle;white-space:normal;opacity:1;vector-effect:none;fill:#000000;fill-opacity:1;stroke:none;stroke-width:1px;stroke-linecap:butt;stroke-linejoin:miter;stroke-miterlimit:4;stroke-dasharray:none;stroke-dashoffset:0;stroke-opacity:1;-inkscape-stroke:none;stop-color:#000000;stop-opacity:1"
       x="708.1922"
       y="218.15929"
       id="text31121"><tspan
         sodipodi:role="line"
         id="tspan31119"
         x="708.1922"
         y="218.15929">Bactria-Margiana</tspan><tspan
         sodipodi:role="line"
         x="708.1922"
         y="239.49258"
         id="tspan31123">Archeological Complex</tspan><tspan
         sodipodi:role="line"
         x="708.1922"
         y="260.8259"
         id="tspan31125">(BMAC)</tspan><tspan
         sodipodi:role="line"
         x="708.1922"
         y="282.15918"
         id="tspan31127">[ca 2200-1700 BCE]</tspan></text>
    <text
       xml:space="preserve"
       style="font-style:italic;font-variant:normal;font-weight:normal;font-stretch:normal;font-size:21.3333px;line-height:100%;font-family:'Linux Libertine O';-inkscape-font-specification:'Linux Libertine O Italic';font-variant-ligatures:none;text-align:center;letter-spacing:0px;word-spacing:0px;writing-mode:lr-tb;text-anchor:middle;fill:#000000;stroke:none;stroke-width:1px;stroke-linecap:butt;stroke-linejoin:miter;stroke-opacity:1"
       x="306.76593"
       y="281.38583"
       id="text70175"><tspan
         sodipodi:role="line"
         x="306.76593"
         y="281.38583"
         id="tspan70171">Mitanni Empire</tspan><tspan
         sodipodi:role="line"
         x="306.76593"
         y="302.71915"
         id="tspan70173">[ca 1500-1300 BCE]</tspan></text>
    <text
       xml:space="preserve"
       style="font-style:italic;font-variant:normal;font-weight:normal;font-stretch:normal;font-size:21.3333px;line-height:100%;font-family:'Linux Libertine O';-inkscape-font-specification:'Linux Libertine O Italic';font-variant-ligatures:none;text-align:center;letter-spacing:0px;word-spacing:0px;writing-mode:lr-tb;text-anchor:middle;fill:#000000;stroke:none;stroke-width:1px;stroke-linecap:butt;stroke-linejoin:miter;stroke-opacity:1"
       x="840.65631"
       y="376.70291"
       id="text33945"><tspan
         sodipodi:role="line"
         x="840.65631"
         y="376.70291"
         id="tspan33947">Area of the Rgveda</tspan><tspan
         sodipodi:role="line"
         x="840.65631"
         y="398.03622"
         id="tspan68703">[ca 1300 BCE]</tspan></text>
  </g>
</svg>
